<?xml version="1.0" standalone="no"?><svg xmlns="http://www.w3.org/2000/svg"><metadata>Created by youziku.com at Thu, 04 Jun 2015 00:21:19 GMT</metadata><defs><font id="jdzhonyuanjian" horiz-adv-x="2048" ><font-face font-family="jdzhonyuanjian" font-weight="400" font-stretch="normal" font-style="normal" units-per-em="2048" panose-1="2 1 6 0 3 1 1 1 1 1" ascent="1761" descent="-287" bbox="-148 -405.632 2046.34 1635" underline-thickness="81" underline-position="-123" unicode-range="U+0009-FFE3"  /><missing-glyph /><glyph glyph-name="" unicode="" /><glyph glyph-name="space" unicode=" "  horiz-adv-x="1024" /><glyph glyph-name="uni4E0B" unicode="&#x4E0B;" d="M142 1305c-62 -4 -101 95 -50 135c14 12 31 18 50 18h1728c35 -1 80 -28 80 -72c0 -46 -41 -81 -80 -81h-838v-1570c-2 -38 -32 -91 -82 -83c-42 -2 -76 41 -76 83v1570h-732zM1748 496c43 -65 68 -83 25 -141c-15 -20 -36 -27 -61 -27c-26 0 -67 24 -120 76
c-66 65 -355 306 -424 360c-46 36 -72 52 -78 111c-4 38 39 70 73 72c29 1 68 -17 119 -52c87 -60 280 -225 360 -289c42 -34 79 -70 106 -110z" /><glyph glyph-name="uni4E13" unicode="&#x4E13;" d="M188 786c-63 -4 -100 85 -51 128c15 13 32 21 51 21h567l61 216h-495c-69 -6 -113 82 -57 127c17 14 35 22 57 22h528l49 194c7 59 110 82 141 24c10 -19 15 -35 12 -52l-36 -166h732c65 4 108 -81 57 -126c-16 -14 -34 -23 -57 -23h-771l-58 -216h965
c66 4 115 -80 61 -127c-17 -14 -36 -22 -61 -22h-1015c-29 -67 -51 -135 -76 -190c-14 -31 -25 -57 24 -56h732c160 13 203 -119 140 -240c-70 -136 -164 -283 -253 -392c82 -36 252 -91 316 -136c65 -45 9 -162 -75 -130c-202 79 -582 209 -862 256
c-158 27 -246 50 -266 62c-32 19 -63 81 -22 110c67 48 76 23 207 0c82 -14 267 -58 555 -123c74 87 157 181 212 295c40 84 65 101 29 140c-7 7 -29 9 -64 9h-843c-100 -10 -125 84 -63 135c51 42 74 64 105 144l47 116h-523z" /><glyph glyph-name="uni4E1A" unicode="&#x4E1A;" d="M82 -179c0 40 40 76 82 76h548v1578c-3 64 83 111 129 56c14 -17 23 -35 23 -56v-1578h318v1584c-5 68 90 109 135 55c14 -16 22 -34 22 -55v-1584h542c65 4 106 -88 55 -133c-16 -15 -34 -23 -55 -23h-1717c-43 -2 -82 38 -82 80zM338 1119c118 -260 228 -587 289 -848
c13 -56 -16 -102 -63 -107c-23 -3 -50 8 -68 40c-62 109 -100 331 -148 447c-41 99 -115 319 -160 401c-34 62 -39 160 39 165c44 3 81 -31 111 -98zM1395 282c46 133 191 448 240 610c24 79 84 291 107 324c27 39 105 35 124 -10c32 -77 -36 -223 -65 -322
c-49 -169 -153 -425 -219 -569c-34 -75 -45 -128 -112 -143c-66 -15 -99 41 -75 110z" /><glyph glyph-name="uni518C" unicode="&#x518C;" d="M1887 777c63 1 118 -89 57 -135c-33 -38 -105 -18 -168 -23l1 -680c-2 -93 -13 -129 -53 -195c-22 -36 -80 -51 -174 -45c-99 6 -160 21 -184 47c-50 54 -46 152 65 132c16 -3 92 -18 111 -18c55 0 82 26 82 87v672l-379 -1c-15 -305 -2 -591 -104 -799
c-39 -80 -40 -108 -118 -114c-41 -3 -74 55 -56 96c69 160 123 391 124 626l6 191l-187 1l-1 -669c-2 -160 -35 -246 -163 -246c-100 0 -271 22 -262 121c7 68 79 59 146 31c86 -36 128 19 128 91v672h-333c-13 -272 -44 -483 -119 -701c-30 -87 -57 -148 -79 -185
c-44 -74 -163 -48 -142 48c17 77 93 237 115 333c37 164 64 323 70 505c-89 -2 -192 -17 -202 73c-5 42 45 85 89 85l122 1l5 492c1 127 49 191 146 191h328c51 -2 120 -26 134 -73c8 -28 16 -53 17 -76l1 -535h189v450c-1 142 39 223 191 223h310c83 0 134 -19 151 -56
s26 -69 26 -96l-1 -521h111zM517 1314c-73 -3 -87 -13 -89 -91l-6 -445l336 -1l1 443c-3 64 -4 95 -74 94h-168zM1354 1304c-78 -2 -97 -24 -98 -108l-6 -418l374 -1v457c-3 53 -28 70 -93 70h-177z" /><glyph glyph-name="uni5355" unicode="&#x5355;" d="M1801 578c-4 -131 -56 -193 -202 -193h-506v-180h799c60 1 99 -70 58 -119c-15 -19 -35 -28 -58 -28h-799v-314c2 -65 -87 -97 -133 -52c-17 17 -27 33 -27 52l-1 315l-789 -1c-62 -6 -97 92 -45 130c14 10 28 17 45 17h790v180h-467c-161 -5 -205 58 -205 199v381
c3 149 44 199 194 199h260c-112 115 -198 171 -289 250c-54 47 -9 125 52 120c63 -4 211 -143 250 -178c33 -30 58 -60 78 -86c43 -55 -2 -67 -19 -106h423c96 107 168 197 217 268s80 109 93 116c33 15 88 0 96 -31c5 -19 7 -39 0 -59c-21 -53 -187 -248 -221 -294h193
c141 -2 213 -42 213 -180v-406zM411 597c-5 -65 31 -68 93 -69h428l1 172h-522v-103zM516 1018c-85 -1 -109 -3 -105 -94v-83h521l1 177h-417zM1554 528c67 -1 89 19 89 86v86h-550l-1 -172h462zM1643 841c-5 84 26 177 -77 177h-473v-177h550z" /><glyph glyph-name="uni5927" unicode="&#x5927;" d="M207 953c-83 -5 -143 88 -79 149c21 20 47 31 79 31h730v283c-3 78 92 133 152 74c20 -20 31 -43 31 -72v-285h746c69 1 112 -102 60 -153c-18 -17 -37 -27 -60 -27h-724c20 -174 138 -384 226 -523c96 -151 277 -335 419 -440c73 -55 119 -92 137 -114
c33 -42 50 -77 13 -126c-17 -23 -42 -34 -73 -32s-124 69 -278 202s-271 268 -352 404s-148 270 -200 400c-76 -210 -173 -398 -322 -572c-123 -144 -289 -270 -435 -361c-56 -35 -97 -51 -123 -53c-70 -6 -113 71 -78 132c8 15 65 53 170 112c201 113 501 423 578 664
c54 167 74 207 83 307h-700z" /><glyph glyph-name="uni5B9E" unicode="&#x5B9E;" d="M168 313c-61 -4 -96 78 -49 118c15 13 30 20 49 20h937c47 202 75 384 82 627c2 80 4 124 68 124c103 0 94 -112 85 -220c-17 -202 -31 -383 -69 -531h642c55 1 94 -76 49 -117c-15 -13 -30 -21 -49 -21h-700c-71 -108 -143 -224 -257 -309
c-186 -139 -375 -237 -621 -312c-85 -26 -139 -31 -165 -26c-57 10 -87 96 -38 130c13 8 47 18 102 28s140 42 259 86c170 63 384 212 474 317l64 86h-863zM163 1266c2 130 56 155 190 155h597c0 60 -46 114 0 157c34 31 90 21 115 -12c23 -31 39 -96 52 -144l649 -1
c97 -4 174 -46 166 -155c-2 -33 -19 -95 -50 -186s-68 -122 -106 -90c-61 51 -72 70 -38 139c19 38 40 64 37 107c-14 52 -31 44 -98 44h-1257c-100 0 -115 -8 -116 -91v-88c2 -39 -34 -73 -72 -73s-69 36 -69 73v165zM459 793c-56 37 -84 78 -49 131c45 40 64 23 134 -15
c55 -30 303 -193 332 -245c27 -49 -4 -105 -58 -105c-14 0 -33 7 -58 23c-56 35 -243 172 -301 211zM1056 904c24 -40 32 -69 2 -104c-14 -16 -36 -22 -63 -12c-52 19 -238 184 -287 216c-67 43 -82 44 -96 98c1 28 33 63 66 63c16 0 42 -10 76 -31
c40 -24 278 -190 302 -230zM1856 -201c43 -49 58 -74 18 -123c-17 -21 -43 -25 -72 -17c-13 3 -37 19 -70 48c-50 44 -365 255 -432 286c-75 34 -95 33 -114 96c-12 41 36 75 77 69c108 -42 305 -158 420 -230c92 -58 149 -102 173 -129z" /><glyph glyph-name="uni5BA2" unicode="&#x5BA2;" d="M869 695c-145 86 -189 112 -310 220c-138 -65 -231 -105 -279 -121s-81 -22 -102 -22c-67 0 -79 45 -61 91c7 18 28 35 61 50c109 49 204 72 300 139c80 56 97 86 224 87h797c122 12 131 -127 71 -191c-18 -33 -192 -166 -223 -185l-113 -70c242 -70 296 -81 539 -122
c101 -17 159 -32 172 -47c43 -51 8 -120 -70 -120c-45 0 -151 14 -319 52s-333 87 -494 147c-324 -111 -441 -137 -732 -188c-87 -15 -142 -21 -164 -21c-91 0 -110 45 -88 107c11 17 31 31 60 41s103 21 222 34s289 53 509 119zM675 998c69 -78 257 -181 368 -237
c97 49 248 142 321 199c26 21 37 34 33 40s-16 8 -36 8h-675zM399 1269c-64 0 -100 -16 -100 -72c0 -80 10 -162 -77 -165c-42 -1 -81 34 -79 73c3 70 -8 150 11 207c25 72 59 101 187 101h579c-6 47 -44 92 0 131c37 33 103 28 127 -16c26 -48 29 -65 44 -114l612 -1
c183 -9 266 -57 224 -276c-14 -71 -44 -185 -131 -165c-33 8 -60 38 -51 90c4 22 45 105 36 138c-14 51 -44 69 -114 69h-1268zM1692 -81c-7 -121 -51 -186 -185 -186h-984c-107 23 -135 22 -177 89c-15 25 -22 54 -22 85v312c3 70 23 123 88 141c37 10 71 17 103 17h1003
c55 -2 137 -25 154 -73c10 -29 20 -53 20 -74v-311zM1543 136c-2 78 -27 95 -108 95l-857 -1c-80 -1 -99 -8 -99 -80v-182c3 -79 22 -83 111 -83h859c68 2 94 21 94 92v159z" /><glyph glyph-name="uni5E97" unicode="&#x5E97;" d="M237 1183c5 141 63 205 219 205l549 -1c-2 59 -61 105 -15 161c27 33 89 38 118 6c42 -48 53 -81 79 -167h661c68 4 117 -85 61 -134c-17 -15 -37 -24 -61 -23l-1351 1c-71 -3 -108 -11 -108 -90c0 -298 -1 -588 -27 -861c-14 -146 -61 -264 -105 -362
c-28 -62 -39 -96 -100 -108c-34 -7 -88 19 -84 60c8 75 1 52 43 132c147 281 106 749 121 1181zM745 -265c-205 -5 -257 55 -257 224v392c-6 128 43 188 119 205c111 25 270 5 398 8v527c2 73 30 93 105 99c88 8 54 -178 61 -267h730c65 3 115 -89 57 -135
c-17 -13 -35 -22 -57 -22h-730v-202h445c33 0 78 -9 135 -28s88 -83 86 -191c-3 -183 10 -356 -9 -529c-6 -54 -65 -81 -176 -81h-907zM1566 -107c94 -3 108 13 108 105v300c4 90 -17 108 -94 108h-815c-98 2 -124 -12 -124 -110v-298c-6 -102 32 -105 129 -105h796z" /><glyph glyph-name="uni5F3A" unicode="&#x5F3A;" d="M168 1354c-58 -4 -97 74 -50 115c14 12 30 19 50 19h399c65 0 103 -18 117 -54c37 -93 19 -209 19 -327c0 -74 -20 -114 -57 -153c-33 -35 -149 -28 -226 -29c-62 -2 -79 -15 -85 -75l-20 -188c-6 -53 9 -79 61 -77c112 4 237 4 260 -89c31 -125 -8 -462 -32 -580
c-31 -152 -106 -243 -319 -243c-86 0 -153 13 -187 52c-40 47 -1 111 68 101c72 -11 198 -29 236 14c79 89 77 207 92 368c10 107 18 150 -3 215c-12 37 -98 24 -148 24c-90 0 -143 24 -159 71s-22 87 -18 122l34 293c16 85 52 126 163 122h95c92 0 101 15 101 94v124
c-2 71 -14 81 -86 81h-305zM1266 -111v289h-281c-88 0 -138 22 -157 66c-43 98 -22 206 -27 332c-6 130 63 173 184 173h281v176c-101 4 -271 -15 -323 28c-43 36 -62 78 -62 154c0 129 -25 278 59 341c23 17 63 29 125 29h545c131 2 171 -58 171 -171
c0 -174 45 -389 -171 -381h-199v-176l281 -1c105 0 144 -24 176 -81c11 -21 16 -45 15 -71c-10 -189 60 -418 -187 -418h-285v-285l278 15c-31 51 -67 65 -71 132c-2 47 58 76 100 48c83 -56 155 -186 216 -276c28 -41 29 -74 6 -94c-70 -60 -104 -19 -159 58l-980 -47
c-65 -6 -116 54 -69 107c16 19 38 29 67 31zM948 393c4 -60 6 -75 78 -76l240 -2v298h-248c-56 -1 -70 -15 -70 -67v-153zM1029 1273c0 -89 -37 -218 72 -218h452c71 5 82 20 82 97v121c-1 51 -26 71 -82 71h-447c-70 1 -77 -18 -77 -71zM1742 540c0 59 -23 73 -86 73h-245
v-298l264 2c102 -8 67 136 67 223z" /><glyph glyph-name="uni62D3" unicode="&#x62D3;" d="M715 1162c57 2 90 -90 45 -130c-13 -13 -28 -19 -45 -19h-190v-387c49 24 110 60 159 82c48 22 116 -28 93 -82c-13 -29 -38 -58 -83 -84s-101 -57 -169 -91v-538c-7 -136 -41 -215 -206 -215c-93 0 -206 25 -213 102c-6 69 62 83 128 60c89 -31 134 7 134 113v409
c-73 -16 -175 -85 -252 -38c-31 19 -30 82 -13 110c63 49 188 63 265 100v460l-178 -1c-65 -6 -108 85 -54 129c49 39 153 12 232 20v296c-3 64 88 105 134 54c14 -16 23 -33 23 -54v-296h190zM1687 888c131 -5 199 -75 198 -210v-722c4 -173 -69 -253 -235 -253h-502
c-125 -2 -175 31 -213 100c-15 27 -20 57 -20 90v521c-51 -64 -125 -189 -185 -230c-36 -24 -87 -34 -114 2c-33 44 -25 77 13 122c90 107 165 185 243 322c100 176 151 348 201 555l15 98h-253c-69 -4 -109 92 -56 139c17 16 35 24 56 24h1039c60 1 97 -98 50 -142
c-14 -14 -31 -21 -50 -21h-617c-34 -171 -61 -247 -101 -396zM1624 -130c78 3 103 0 103 89v667c-7 57 -15 99 -76 99l-470 1c-97 -2 -114 -20 -114 -109v-644c2 -94 18 -103 121 -103h436z" /><glyph glyph-name="uni6536" unicode="&#x6536;" d="M564 1438c-4 67 89 108 135 55c14 -16 22 -33 22 -52l-1 -1669c4 -72 -81 -127 -134 -74c-16 16 -23 35 -23 57v456c-72 -40 -227 -163 -318 -173c-59 -6 -105 48 -84 112c12 35 29 59 29 114v936c-3 67 83 117 133 64c16 -17 25 -37 25 -61v-943c81 52 152 98 215 138z
M1872 1316c67 3 104 -94 54 -142c-37 -36 -111 -16 -175 -22c-12 -202 -49 -440 -123 -618c-42 -101 -81 -189 -122 -266c84 -103 58 -68 186 -196c72 -72 126 -118 158 -144c53 -43 80 -50 90 -115c3 -21 -9 -44 -30 -67s-62 -17 -124 18s-188 156 -377 363
c-189 -194 -245 -261 -461 -371c-64 -33 -92 -25 -140 26c-26 28 -25 56 8 79c127 90 331 203 427 330l59 75c-109 180 -185 304 -260 575c-28 -61 -62 -124 -102 -189s-77 -84 -110 -51c-59 58 -76 63 -35 134c98 168 185 350 208 601c11 113 -3 127 35 182
c11 17 39 24 78 24s63 -26 63 -79c0 -14 -10 -118 -14 -147h707zM1152 1152c-19 -134 49 -290 81 -397c37 -124 103 -241 171 -337c92 194 180 451 179 734h-431z" /><glyph glyph-name="uni672A" unicode="&#x672A;" d="M1103 -239c5 -72 -97 -110 -145 -55c-15 17 -24 35 -24 55v681c-164 -167 -253 -259 -484 -396c-127 -75 -206 -117 -238 -130c-76 -30 -160 -11 -156 68c1 22 14 43 37 63s71 46 145 78c147 62 380 222 490 326c62 59 123 127 183 207h-746c-64 -5 -101 83 -52 127
c14 14 31 21 52 21h769v319h-681c-65 -5 -99 86 -53 130c14 15 32 22 51 22h683l-1 178c-6 69 97 102 143 52c44 -47 15 -150 24 -230h720c58 1 96 -92 46 -133c-14 -12 -29 -19 -46 -19h-720v-319h786c64 4 109 -81 58 -126c-15 -14 -35 -22 -58 -22h-763
c177 -267 512 -461 809 -614c52 -27 68 -38 71 -90c3 -47 -36 -85 -83 -85c-30 0 -93 26 -192 77c-146 76 -334 215 -436 304c-31 28 -94 94 -189 195v-684z" /><glyph glyph-name="uni6765" unicode="&#x6765;" d="M1780 1320c59 1 99 -91 49 -134c-15 -13 -31 -21 -49 -21h-671v-458h192c-25 24 -32 65 -11 99c45 74 86 132 148 234c53 87 104 121 160 66c36 -62 19 -95 -33 -173c-47 -70 -99 -176 -152 -226h430c56 -2 94 -90 49 -135c-15 -16 -31 -24 -49 -24h-637
c156 -200 196 -232 390 -376c86 -63 165 -103 234 -129c102 -39 133 -35 148 -116c-2 -51 -23 -65 -75 -73c-30 -4 -109 28 -239 98c-269 145 -375 261 -555 494v-679c3 -65 -87 -107 -134 -57c-15 16 -24 35 -24 57v650c-171 -182 -387 -365 -616 -491
c-90 -49 -96 -61 -177 -70c-43 -5 -66 22 -66 68c0 26 11 50 38 68c129 86 362 206 477 308c30 27 115 109 252 248h-593c-66 -4 -106 90 -54 137c16 14 33 22 54 22h395c-71 54 -43 36 -145 142c-62 65 -99 107 -112 125c-25 33 -39 91 -4 125c18 17 40 22 69 14
c30 0 258 -246 270 -265c35 -54 28 -106 -23 -141h235v458h-671c-68 -5 -108 85 -56 132c16 15 34 23 56 23h671v187c-3 64 89 104 135 53c14 -16 23 -32 23 -53v-187h671z" /><glyph glyph-name="uni6CE8" unicode="&#x6CE8;" d="M505 -213c0 37 45 81 82 81h580v561h-399c-67 -1 -124 78 -64 129c20 17 40 27 64 27h399l-2 450l-440 1c-65 -3 -120 80 -60 126c19 14 38 24 60 24h1164c56 -3 106 -76 55 -123c-19 -17 -36 -27 -55 -27l-566 -1l-1 -450h464c33 0 77 -47 72 -86
c-4 -33 -37 -71 -72 -70h-464v-561h576c66 4 100 -90 51 -134c-17 -15 -35 -23 -56 -23h-1311c-37 -1 -77 36 -77 76zM437 474c24 31 45 50 89 32c63 -26 67 -112 34 -188c-28 -64 -123 -312 -157 -371c-30 -51 -142 -278 -217 -285c-65 -6 -105 38 -97 94
c10 69 99 161 135 220c43 71 150 294 171 388c12 52 26 90 42 110zM507 739c41 -51 3 -121 -54 -121c-22 0 -51 12 -81 44c-69 72 -227 134 -247 240c-9 48 28 78 89 66c43 10 285 -204 293 -229zM206 1320c-36 63 18 137 92 100c63 -31 156 -111 214 -160
c40 -34 76 -58 71 -124c-3 -48 -51 -72 -101 -48c-63 31 -135 102 -198 154c-45 37 -70 63 -78 78zM1070 1443c-28 55 12 119 78 101c72 -19 92 -69 152 -135c40 -43 57 -81 62 -107c14 -76 -80 -119 -128 -66c-28 31 -89 122 -121 154c-22 22 -37 41 -43 53z" /><glyph glyph-name="uni7406" unicode="&#x7406;" d="M101 1388c0 35 29 69 60 69h468c53 0 87 -69 49 -113c-38 -45 -128 -16 -199 -25v-531c86 -9 210 34 219 -64c4 -36 -30 -71 -64 -71h-155v-567c49 21 100 41 146 71c106 69 144 -55 81 -107c-85 -70 -119 -72 -306 -160c-133 -62 -219 -90 -258 -90
c-78 0 -100 92 -52 124c51 34 168 63 235 96v633h-164c-58 -4 -96 78 -49 117c43 37 142 11 213 18v531h-164c-32 0 -60 33 -60 69zM817 128c-62 -5 -99 84 -50 128c15 14 31 21 50 21h406v216c-169 4 -359 -22 -447 72c-25 26 -39 81 -39 166v488c6 130 28 227 142 247
c38 7 75 13 113 13h630c145 5 196 -44 234 -125c13 -28 17 -65 17 -107v-528c-1 -86 -21 -141 -69 -187c-67 -64 -299 -31 -434 -39v-216h439c60 2 102 -83 54 -127c-15 -15 -33 -22 -54 -22h-439v-248h519c60 3 103 -78 52 -120c-15 -13 -32 -21 -52 -21h-1181
c-61 -5 -95 84 -46 123c14 11 29 18 46 18h515v248h-406zM883 777c4 -106 -3 -141 122 -141h218v282h-340v-141zM1018 1338c-109 -5 -135 -4 -135 -107v-169h340v276h-205zM1583 636c127 -5 144 26 144 122v160h-357v-282h213zM1727 1219c5 96 -30 119 -125 119h-232v-276
h357v157z" /><glyph glyph-name="uni7528" unicode="&#x7528;" d="M223 1258c-4 155 17 221 182 221h1200c169 -4 232 -45 232 -215l1 -1317c0 -39 -8 -93 -24 -161s-93 -96 -234 -91c-100 4 -230 25 -278 65c-27 23 -24 90 4 112c36 28 55 26 110 9c38 -12 190 -46 233 -15c36 27 39 61 39 127v317h-586v-469c3 -70 -90 -114 -140 -60
c-17 18 -26 37 -26 60v469h-569c-14 -176 -33 -299 -78 -444c-22 -72 -37 -124 -100 -143c-45 -13 -90 33 -90 67c0 67 49 168 65 222c51 178 59 472 59 715v531zM936 813h-564l-3 -340h567v340zM463 1328c-77 0 -91 -10 -91 -89v-271h564v359zM1102 813v-340h586v340h-586z
M1688 1211c2 97 -16 116 -114 116h-472v-359h586v243z" /><glyph glyph-name="uni7B80" unicode="&#x7B80;" d="M952 1392c61 3 97 -90 48 -130c-15 -12 -30 -19 -48 -19h-235c22 -54 54 -93 58 -149c3 -43 -52 -76 -97 -56c-14 6 -27 18 -39 36s-44 74 -97 169h-132c-28 -52 -54 -84 -86 -129c-84 -118 -151 -173 -200 -171c-60 3 -83 76 -38 118c75 71 211 249 254 367
c30 84 23 103 90 124c41 13 95 -38 81 -65l-24 -95h465zM351 -265c5 -62 -83 -99 -125 -51c-12 14 -18 31 -18 51v1035c-4 59 89 93 126 44c11 -13 17 -28 17 -44v-1035zM576 723c-64 52 -230 167 -258 244c-13 36 41 88 75 82c22 6 240 -199 247 -207
c30 -34 34 -80 -7 -106c-21 -14 -40 -19 -57 -13zM1181 657c156 4 227 -60 227 -191v-384c-2 -69 -19 -112 -54 -156c-20 -26 -63 -39 -129 -39h-411c-132 -3 -176 34 -212 107c-13 26 -18 58 -18 93v390c0 33 10 72 31 115s73 65 156 65h410zM835 530
c-91 -2 -112 -15 -112 -97v-83h538v89c-1 69 -30 92 -108 91h-318zM1178 24c73 2 83 20 83 95v87h-538v-69c-1 -84 21 -113 112 -113h343zM835 842c-64 -4 -110 76 -57 122c16 14 35 22 57 22h733c85 -2 192 -32 216 -103c13 -40 24 -74 24 -105v-880
c-4 -119 -8 -134 -66 -206c-29 -36 -110 -52 -242 -41c-131 11 -162 4 -174 87c5 53 34 68 108 60c72 -8 151 -10 189 18c27 19 36 121 36 166v730c-11 92 -28 130 -149 130h-675zM1855 1386c66 5 111 -74 59 -120c-17 -15 -36 -23 -59 -23h-331c25 -71 110 -157 33 -223
c-21 -18 -45 -18 -71 2s-72 94 -136 221h-128c-54 -80 -93 -216 -198 -235c-46 -8 -67 15 -66 70c39 80 135 230 166 316c24 65 41 180 140 140c54 -22 32 -99 16 -148h575z" /><glyph glyph-name="uni7BA1" unicode="&#x7BA1;" d="M942 1443c65 5 112 -79 58 -123c-16 -13 -35 -20 -58 -20h-205c14 -73 28 -175 -63 -175c-81 0 -82 107 -100 175l-171 -1c-105 -101 -173 -154 -204 -161c-69 -15 -108 32 -87 93c28 45 117 105 158 149c43 46 81 114 114 157c20 26 67 33 99 6c42 -35 19 -55 13 -100
h446zM259 750c4 -65 -87 -104 -129 -52c-36 43 -16 135 -16 205c0 126 42 162 195 162h627c-9 39 -48 80 -29 124c8 19 30 26 61 24c7 46 18 41 77 103c68 71 95 113 142 185c30 46 66 55 102 34c58 -34 42 -58 28 -108h570c55 1 89 -82 46 -123c-14 -13 -29 -21 -46 -21
h-293c5 -59 28 -113 -8 -155c-28 -33 -101 -21 -117 13c-14 30 -29 96 -38 142l-211 -1c-102 -93 -104 -109 -168 -130c26 -45 24 -46 36 -87h661c176 9 237 -105 193 -257c-22 -75 -50 -218 -154 -159c-83 47 22 162 8 236c-24 42 -38 36 -119 36l-1310 1
c-78 -4 -116 -1 -108 -87v-85zM353 609c-4 151 49 201 204 201h898c47 0 95 -7 141 -22s69 -73 66 -174c-3 -91 7 -173 -50 -218c-23 -18 -68 -30 -140 -30h-976l-2 -130c371 -1 748 12 1115 -2c129 -5 105 -203 105 -340c0 -116 -66 -153 -189 -153h-960
c-161 -3 -212 60 -212 197v671zM1569 6c-2 88 -22 86 -116 86h-957c7 -73 -23 -178 42 -196c17 -5 43 -8 80 -8l867 -1c83 -11 86 41 84 119zM613 675c-85 -2 -119 -11 -117 -97v-74h935c71 -5 88 20 83 91c-5 63 -12 80 -92 80h-809z" /><glyph glyph-name="uni7EA6" unicode="&#x7EA6;" d="M764 386c46 0 97 -22 88 -78c-11 -63 -48 -65 -128 -75c-54 -7 -432 -26 -493 -23c-95 5 -132 57 -93 118c49 42 103 81 160 145c83 94 99 141 163 237c-150 -13 -232 -17 -247 -17c-117 0 -130 91 -81 155c90 117 109 159 193 366c52 128 80 206 88 232
c14 44 32 91 84 92c50 1 67 -30 72 -78c2 -26 -14 -73 -43 -143c-85 -205 -94 -240 -222 -482c32 2 112 9 240 21c20 46 127 259 143 308c20 60 68 146 138 92c15 -12 22 -37 19 -72c-9 -94 -115 -269 -158 -363c-39 -86 -181 -313 -233 -378l-74 -94c185 10 266 37 384 37z
M846 7c36 -5 69 -54 41 -101c-11 -19 -31 -36 -61 -47c-148 -52 -487 -159 -668 -159c-54 0 -77 77 -38 118c44 47 185 61 265 77c119 24 357 101 461 112zM1703 985c0 87 -6 131 -107 131h-422c-51 -104 -117 -243 -178 -324c-30 -39 -84 -65 -126 -31
c-36 29 -31 66 -5 110c84 139 156 229 223 422l50 141c21 59 46 89 76 90c99 5 72 -126 48 -190l-27 -73h407c188 -2 211 -118 209 -315c-3 -259 0 -483 -19 -742c-21 -288 -15 -345 -134 -477c-80 -90 -391 -64 -514 -19c-46 16 -81 35 -86 86c17 151 237 48 358 48
c201 0 213 114 224 313c14 248 23 581 23 830zM1406 434c13 -59 22 -154 -57 -143c-50 7 -65 31 -85 89c-23 65 -110 276 -139 333c-28 55 -36 91 -1 129c50 32 88 0 122 -44c25 -32 150 -318 160 -364z" /><glyph glyph-name="uni8425" unicode="&#x8425;" d="M777 1244c-1 -83 17 -177 -75 -182c-41 -2 -81 33 -80 72v110l-448 2c-63 -5 -97 84 -48 124c14 12 30 18 48 18h448c0 83 -16 176 74 184c40 4 81 -32 81 -70v-114h547c-1 83 -13 174 78 180c42 3 86 -36 86 -75v-105h417c62 4 104 -86 49 -126c-16 -11 -31 -18 -49 -18
h-417c-1 -87 19 -181 -74 -194c-43 -6 -90 34 -90 73v121h-547zM160 852c2 137 47 180 183 180h1396c25 0 59 -5 100 -16c92 -22 132 -114 107 -220c-17 -71 -22 -224 -119 -210c-55 8 -73 32 -60 95c8 38 39 136 24 165c-24 46 -43 44 -124 44h-1256
c-83 -4 -98 -6 -98 -102v-138c5 -67 -86 -110 -131 -56c-14 16 -22 35 -22 56v202zM293 -106c-6 165 -4 284 171 284h1101c154 1 212 -43 212 -178c0 -102 22 -215 -65 -248c-36 -14 -72 -24 -109 -24h-1097c-151 0 -208 37 -213 166zM1527 -136c60 3 87 2 87 67
c0 89 -17 103 -110 103h-976c-79 7 -85 -28 -84 -101c1 -64 19 -70 98 -70zM415 592c-1 125 71 155 193 155h857c137 0 206 -51 205 -152c-1 -87 2 -133 -15 -217c-9 -46 -60 -68 -154 -68h-890c-130 9 -191 38 -196 161v121zM1454 445c65 -3 69 40 67 100
c-2 55 -8 63 -78 64h-790c-89 3 -92 -20 -91 -94c1 -50 16 -70 71 -70h821z" /><glyph glyph-name="uni8F7D" unicode="&#x8F7D;" d="M596 1526c-3 58 79 94 120 48c39 -43 13 -139 21 -211h373c57 1 98 -71 56 -116c-15 -17 -33 -25 -56 -25h-373v-157h534c-4 150 -11 265 -17 412c-4 91 46 128 114 95c16 -8 26 -31 29 -70c7 -79 16 -321 20 -437h445c60 3 106 -80 54 -123c-15 -13 -33 -21 -54 -21
h-440c7 -185 37 -393 83 -542c43 87 82 175 115 285c28 94 16 120 86 135c46 10 73 -36 73 -77c0 -101 -37 -149 -79 -260c-45 -120 -77 -170 -126 -261c41 -99 40 -101 115 -219c49 -77 73 -120 101 -90c48 51 3 269 126 231c46 -14 50 -68 40 -133
c-19 -127 -18 -138 -48 -244c-13 -44 -40 -71 -79 -79c-51 -11 -111 25 -179 109s-128 180 -180 288c-75 -88 -93 -113 -195 -202c-84 -73 -91 -99 -173 -110c-53 -7 -79 69 -38 106c73 66 213 175 273 256l69 93c-70 191 -120 459 -129 714h-733c35 -19 64 -46 44 -97
l-28 -69h520c57 1 94 -78 50 -121c-15 -15 -31 -23 -50 -23h-561c-31 -69 -66 -142 -103 -221h208c3 85 -23 193 72 198c38 3 74 -34 74 -71v-127h273c59 3 95 -86 47 -126c-14 -12 -28 -18 -43 -18h-277v-138l301 30c86 13 98 -122 14 -132l-315 -38v-238
c1 -56 -80 -90 -122 -48c-16 14 -24 30 -24 48v227l-436 -56c-63 -11 -110 59 -70 111c12 15 28 24 49 27l457 55v152c-114 3 -249 -10 -350 8c-41 7 -69 52 -43 108c37 78 68 122 122 249c-94 9 -236 -37 -232 80c2 33 35 65 69 64h224c31 87 33 106 52 149l17 17h-307
c-68 -6 -125 78 -66 124c16 12 36 20 62 20h424v157h-360c-62 -5 -99 85 -47 124c14 11 29 17 47 17h360v163zM1812 1255c18 -57 -19 -112 -83 -94c-33 9 -126 133 -146 157c-28 33 -60 50 -58 103c1 34 35 65 80 58c54 -9 193 -178 207 -224z" /><glyph glyph-name="uni94F6" unicode="&#x94F6;" d="M710 1011c61 2 94 -89 46 -129c-15 -13 -30 -21 -46 -21h-188v-237h221c59 3 93 -86 47 -126c-14 -14 -30 -21 -47 -21h-221v-491c71 49 126 102 192 142c49 30 91 -19 96 -48c3 -16 2 -34 -10 -52c-45 -67 -222 -173 -299 -223c-57 -37 -99 -39 -129 -12
c-52 45 -55 85 -21 133c14 20 23 60 23 100l-1 451c-95 10 -234 -36 -247 68c-4 40 34 79 75 79h172v237h-114c-51 -94 -94 -128 -127 -99c-60 52 -65 80 -20 145c32 48 131 218 156 275c20 47 90 235 106 286c16 49 27 86 83 92c55 5 91 -49 62 -135l-16 -64h268
c59 3 84 -89 41 -127c-14 -12 -27 -19 -41 -19h-314l-101 -204h354zM1354 532c23 -83 48 -170 97 -235l42 -62c94 91 152 151 177 177c39 41 53 72 111 68c36 -3 65 -42 51 -91c-8 -28 -68 -94 -99 -122l-155 -138c80 -95 193 -175 304 -239c49 -28 78 -33 88 -88
c-2 -62 -46 -99 -140 -57c-115 51 -376 253 -440 361c-85 142 -145 264 -191 426h-141v-667c95 31 160 79 238 120c33 17 88 14 99 -26c7 -23 8 -43 -2 -64c-13 -55 -363 -215 -439 -207c-101 -21 -122 89 -75 142c29 32 35 63 34 131l-1 1303c-1 77 25 124 71 158
c25 18 70 28 136 28h489c104 0 165 -24 183 -72s27 -86 27 -114v-519c-1 -82 -15 -127 -56 -175c-22 -26 -70 -38 -143 -38h-265zM1549 676c105 0 118 16 118 119v130h-609v-249h491zM1202 1306c-106 -3 -144 0 -144 -96v-141h609v130c0 97 -41 106 -144 107h-321z" /><glyph glyph-name="uni94FA" unicode="&#x94FA;" d="M1251 1491c-2 59 92 89 133 43c35 -39 12 -119 19 -184l512 1c56 -2 98 -68 59 -119c-13 -16 -29 -26 -52 -26l-519 -1v-184c149 -8 417 32 451 -75c16 -50 26 -87 26 -113v-920c-5 -163 -81 -239 -283 -224c-83 6 -132 20 -145 51c-28 64 8 113 65 113
c11 0 115 -22 133 -11c68 17 68 53 68 146v239h-315v-457c2 -61 -85 -95 -129 -50c-15 15 -23 31 -23 50v457h-279v-433c2 -65 -82 -109 -130 -58c-16 17 -26 35 -25 58l1 1042c-1 123 68 185 187 185h246v184h-381c-60 -4 -97 88 -46 128c13 10 28 17 46 17h381v141z
M973 366h279l-1 199h-279zM1091 883c-101 -3 -115 -7 -119 -91v-81h279v172h-160zM1718 565h-315l1 -199h315zM1718 780c1 81 -20 103 -102 103h-213v-172h315v69zM1754 1392c-48 -91 -149 35 -181 60c-42 34 1 103 52 92c16 -3 45 -21 88 -56s56 -67 41 -96zM665 996
c62 4 107 -78 53 -120c-48 -37 -145 -13 -221 -21v-235h226c65 5 108 -86 52 -127c-16 -12 -33 -19 -52 -19h-226v-496c36 22 81 54 133 97s90 51 114 25s31 -52 22 -81c-6 -17 -39 -48 -98 -93s-117 -88 -176 -128s-101 -51 -132 -36c-58 27 -65 82 -30 132
c11 16 15 29 16 40l1 540h-190c-65 -4 -107 73 -59 121c16 16 34 25 59 25h190v235h-102c-30 -52 -67 -98 -137 -67c-18 8 -23 25 -26 47c-4 31 127 275 161 371c31 87 56 181 82 274c15 51 23 75 77 81c57 6 83 -48 70 -109l-20 -96h247c59 4 90 -83 47 -122
c-14 -13 -29 -19 -47 -19h-288l-91 -219h345z" /><glyph glyph-name="uni9500" unicode="&#x9500;" d="M154 463c-60 -3 -96 89 -47 131c13 13 29 19 47 19h193v240h-143c-46 -49 -79 -66 -102 -53c-80 47 -28 127 14 193c70 113 137 270 177 417c13 47 26 82 38 106c20 41 83 46 109 13c43 -53 -1 -143 -12 -200h238c62 2 106 -77 56 -122c-16 -15 -34 -23 -56 -23h-283
c-45 -108 -50 -110 -92 -190h375c58 3 93 -84 46 -122c-14 -12 -29 -19 -46 -19h-175v-240h209c61 2 98 -80 52 -125c-16 -16 -33 -25 -52 -25h-209l-1 -495c99 60 131 97 206 146c43 29 88 -25 92 -55c2 -19 -3 -39 -18 -61c-13 -18 -76 -68 -188 -150s-186 -109 -220 -76
c-49 47 -65 60 -47 115c27 30 33 64 33 127l-1 449h-193zM1592 1046c-66 -26 -118 42 -80 101c18 28 84 83 107 109c48 54 116 153 160 206c21 26 73 31 97 -1c13 -18 20 -37 17 -62c9 -47 -260 -356 -301 -353zM1284 1483c-4 63 86 97 128 49c14 -15 21 -31 21 -49v-489
c111 -2 297 11 349 -34c47 -41 78 -79 78 -154v-875c0 -109 -34 -156 -96 -203c-51 -39 -349 -15 -366 18c-50 43 -34 129 49 129c28 0 160 -25 198 -15c64 18 70 29 70 126v214h-685v-438c2 -59 -79 -98 -122 -52c-14 15 -22 32 -22 52v1044c0 135 79 188 213 188h185v489z
M1030 350h685v182h-685v-182zM1150 845c-99 -1 -122 -11 -120 -107v-62h685v62c-2 94 -20 107 -124 107h-441zM1216 1091c-2 -37 -37 -71 -78 -54c-66 27 -74 57 -135 136c-62 80 -129 130 -169 201c-21 38 12 80 41 86c38 7 105 -40 201 -143s142 -179 140 -226z" /><glyph glyph-name="uni9875" unicode="&#x9875;" d="M390 117c-43 0 -78 50 -78 99v617c4 125 29 202 132 226c112 26 269 9 402 14l99 229h-782c-47 -2 -87 33 -88 75c0 39 44 72 88 72h1719c61 3 102 -82 52 -125c-16 -13 -32 -22 -52 -22l-771 -1l-102 -228h500c181 -4 253 -52 254 -238v-641c4 -69 -88 -113 -137 -60
c-16 17 -26 37 -26 60v616c-4 118 -18 122 -138 122h-873c-98 -3 -122 -8 -122 -99v-617c3 -53 -32 -99 -77 -99zM210 -308c-102 -22 -148 85 -69 130c13 8 60 22 142 40c157 34 409 201 503 300c119 125 165 334 156 568c-3 72 -1 96 30 128c27 28 73 23 94 -7
c60 -86 15 -359 0 -467c-10 -70 -56 -164 -133 -284s-184 -209 -321 -268c-195 -83 -255 -108 -402 -140zM1111 81c-33 17 -64 59 -33 97c29 35 74 32 126 12c124 -49 340 -146 474 -208c138 -64 216 -113 238 -137c36 -38 47 -81 12 -117c-49 -32 -71 -22 -131 13
c-215 123 -463 227 -686 340z" /><glyph glyph-name="uni9884" unicode="&#x9884;" d="M148 655c-61 -4 -100 83 -52 125c14 13 31 19 52 19h315c-143 217 -156 241 -233 341c-39 50 6 132 67 110c11 -3 23 -12 39 -28s62 -72 138 -169c103 126 160 201 169 225c25 68 4 60 -82 60h-380c-36 -1 -66 33 -66 72c0 37 29 67 66 66h463c98 -2 149 -1 187 -42
c21 -23 18 -62 8 -96c-42 -143 -186 -280 -291 -412c25 -45 38 -61 32 -102l-19 -25h126c96 0 151 -21 163 -64c34 -123 19 -145 -18 -288c-33 -126 -36 -160 -123 -183c-54 -15 -97 58 -64 110c14 60 91 202 45 265c-32 27 -117 12 -174 16v-775c1 -136 -57 -172 -183 -186
c-107 -12 -209 -13 -199 87c6 60 38 58 121 64c88 6 114 10 114 87v723h-221zM1330 866c44 62 129 28 126 -72c-6 -209 2 -318 -28 -522c-33 -224 -258 -401 -414 -501c-85 -55 -145 -79 -176 -77c-52 2 -84 24 -84 70c0 52 42 61 84 83c142 74 311 178 384 331
c61 128 89 275 89 456c0 122 -25 171 19 232zM1876 1468c63 5 105 -76 54 -118c-16 -13 -33 -20 -54 -20h-445l-48 -209h197c181 -3 290 -63 290 -244v-667c3 -62 -77 -101 -122 -56c-16 15 -24 33 -24 56v589c-1 142 -23 183 -175 183h-309c-137 1 -152 -52 -152 -174v-598
c4 -63 -78 -100 -122 -53c-14 15 -22 32 -22 53v672c1 98 33 158 89 204c35 29 118 38 199 35l49 209h-320c-57 -4 -93 82 -45 120c13 12 28 18 45 18h915zM1934 -197c46 -48 -22 -150 -94 -96c-65 49 -109 105 -186 176c-60 56 -135 120 -188 179c-48 54 1 132 67 113
c51 -15 125 -93 169 -130c47 -40 198 -188 232 -242z" /><glyph glyph-name="uni9996" unicode="&#x9996;" d="M125 1133c-59 -5 -90 92 -42 125c15 10 29 14 42 14h514c-62 62 -153 150 -212 210c-40 41 -3 116 52 108c66 12 243 -177 265 -209c35 -49 31 -75 -13 -109h555c-4 23 -4 40 0 50c1 15 112 114 119 123l89 106c45 46 78 57 98 31c51 -68 42 -80 -12 -160
c-57 -85 -83 -92 -146 -148l488 -2c56 2 93 -74 50 -116c-15 -15 -31 -23 -50 -23l-905 -1c-25 -93 -28 -97 -52 -169l615 1c101 0 160 -24 176 -72s24 -83 24 -108v-837c-3 -107 -46 -181 -140 -199c-35 -7 -65 -11 -92 -11h-1051c-129 -6 -172 46 -199 121
c-9 25 -12 51 -12 75v843c0 26 8 64 25 114s73 74 169 74h328c15 45 32 102 52 169h-735zM1517 -121c81 -3 113 29 113 111v158h-1199v-152c0 -81 25 -117 107 -117h979zM1630 505h-1199v-226h1199v226zM537 820c-76 0 -105 -14 -106 -85l-1 -103l1200 2v101
c-4 64 -34 86 -115 85h-978z" /></font>
</defs>
</svg>
