<?xml version="1.0" standalone="no"?><svg xmlns="http://www.w3.org/2000/svg"><metadata>Created by youziku.com at Thu, 04 Jun 2015 13:11:03 GMT</metadata><defs><font id="SiYuan-ExtraLight" horiz-adv-x="1000" ><font-face font-family="SiYuan-ExtraLight" font-weight="400" font-stretch="normal" font-style="normal" units-per-em="1000" panose-1="2 1 6 0 3 1 1 1 1 1" ascent="860" descent="-140" bbox="-33 -275 1000 924" underline-thickness="40" underline-position="-60" unicode-range="U+0021-FFE5"  /><missing-glyph /><glyph glyph-name="" unicode="" /><glyph glyph-name="uni4EAB" unicode="&#x4EAB;" d="M934 701h-869v29h441c-14 33 -32 66 -53 99l27 8c25 -39 45 -75 60 -107h394v-29zM231 463h543v125h-543v-125zM202 434v183h601v-183h-601zM846 336c-82 -49 -216 -92 -332 -117v-56h429v-29h-429v-162c-1 -73 -125 -37 -194 -46c-1 5 -5 14 -12 26c36 -1 70 -1 101 -1
c41 0 70 -9 76 20v163h-425v29h425v77c103 19 196 46 279 83h-614v29c223 1 452 -3 672 2z" /><glyph glyph-name="uni4EBA" unicode="&#x4EBA;" d="M523 825c-19 -191 28 -338 82 -474c70 -176 180 -315 348 -391c-9 -5 -16 -13 -21 -23c-240 113 -369 358 -427 657c-48 -313 -185 -541 -427 -659c-4 7 -11 14 -21 21c291 142 430 441 436 869h30z" /><glyph glyph-name="uni4ED8" unicode="&#x4ED8;" d="M72 369c-5 6 -17 19 -23 24c115 109 206 252 273 429l29 -7c-34 -86 -73 -164 -117 -234v-650h-29v604c-44 -65 -88 -121 -133 -166zM940 572h-142v-583c0 -32 -14 -51 -42 -57c-21 -5 -87 -6 -196 -5c-3 8 -7 18 -14 31c58 -2 139 -4 193 -1c20 1 30 12 30 31v584h-430
v29h430v217h29v-217h142v-29zM582 160c-41 76 -95 163 -162 260l24 13c71 -101 125 -186 164 -255z" /><glyph glyph-name="uni5168" unicode="&#x5168;" d="M514 -10h413v-29h-852v29h410v209h-287v29h287v197h-286v29h609v-29h-294v-197h302v-29h-302v-209zM943 401c-168 108 -321 234 -443 382c-115 -162 -262 -288 -441 -379c-6 8 -14 16 -23 23c203 99 359 237 470 415l26 -12c-6 -8 -11 -16 -16 -24
c118 -149 280 -278 451 -381c-10 -6 -18 -14 -24 -24z" /><glyph glyph-name="uni5206" unicode="&#x5206;" d="M371 795c-65 -163 -162 -294 -289 -393c-8 6 -17 15 -25 20c126 92 221 219 285 381zM802 441c-8 -154 -16 -292 -28 -356c-19 -101 -16 -141 -106 -147c-39 -2 -94 1 -165 6c0 11 -3 20 -9 29c50 -6 111 -8 168 -8c23 0 38 4 45 11c15 15 28 54 37 117
c10 66 19 172 28 319h-336c-30 -251 -135 -416 -345 -486l-19 22c204 66 306 221 333 464h-225v29h622zM658 805c73 -165 170 -288 291 -370c-9 -7 -17 -15 -24 -24c-119 89 -216 217 -292 383z" /><glyph glyph-name="uni523B" unicode="&#x523B;" d="M395 436c-163 -11 -193 -5 -277 -20c-3 10 -7 25 -11 33c72 37 136 148 184 220h-226v29h280c-15 42 -36 83 -65 123l25 11c33 -43 56 -84 69 -123l-22 -11h243v-29h-267c-51 -81 -102 -152 -160 -214l250 10c26 33 47 64 65 100l28 -10c-88 -161 -238 -297 -405 -387
c-7 9 -15 17 -23 24c123 61 227 143 312 244zM82 -42c192 87 368 238 467 413l27 -11c-37 -65 -85 -128 -143 -188c69 -61 124 -116 165 -165l-24 -21c-46 55 -100 110 -161 165c-89 -87 -191 -160 -308 -217c-5 6 -17 19 -23 24zM725 156h-29v552h29v-552zM907 816v-831
c0 -26 -11 -43 -32 -48c-19 -5 -67 -6 -145 -5c-2 9 -6 19 -13 28c48 -1 91 -1 137 0c16 1 24 9 24 24v832h29z" /><glyph glyph-name="uni529B" unicode="&#x529B;" d="M897 601c-12 -209 -26 -387 -39 -475s-32 -143 -53 -167c-15 -17 -38 -26 -69 -27c-35 -1 -88 1 -160 7c-2 11 -5 23 -10 30c51 -6 109 -8 166 -8c22 0 38 5 47 14c20 19 36 72 49 159c13 91 26 237 38 438h-402c-20 -323 -168 -507 -379 -646c-6 7 -14 17 -21 22
c206 134 351 309 371 624h-345v29h345c4 72 1 151 2 227h29c-1 -76 2 -155 -2 -227h433z" /><glyph glyph-name="uni5373" unicode="&#x5373;" d="M153 747v-176h288v176h-288zM441 355v187h-288v-187h288zM86 -2c21 10 39 30 38 59v718h346v-448h-317v-297l248 89c-25 45 -49 85 -72 120l24 11c60 -91 108 -175 143 -252l-25 -15c-18 39 -37 79 -58 115c-181 -73 -218 -79 -311 -129c-4 9 -11 23 -16 29zM898 194
c0 -25 -10 -40 -29 -45c-17 -5 -66 -6 -149 -5c-3 10 -7 20 -12 29c71 -2 118 -2 139 -1c15 1 22 8 22 21v547h-244v-812h-29v841h302v-575z" /><glyph glyph-name="uni5B89" unicode="&#x5B89;" d="M137 526h-29v181h387c-19 43 -38 82 -57 116l29 7c19 -36 47 -89 61 -123h362v-181h-29v152h-724v-152zM363 408c-39 -62 -74 -114 -106 -157c88 -26 183 -64 268 -97c73 69 127 154 160 254h-322zM350 437c35 59 68 119 94 178l27 -6c-24 -53 -54 -110 -91 -172h546v-29
h-209c-35 -107 -89 -196 -163 -266c141 -58 252 -114 333 -168l-25 -28c-80 54 -192 111 -335 172c-106 -88 -239 -142 -401 -182c-5 9 -13 18 -23 25c168 36 300 93 395 170c-97 40 -192 75 -286 104c41 51 81 108 120 173h-253v29h271z" /><glyph glyph-name="uni5BA2" unicode="&#x5BA2;" d="M114 575h-29v156h427c-14 30 -33 62 -58 96l26 9c27 -35 49 -70 66 -105h367v-156h-29v127h-770v-127zM277 204v-207h455v207h-455zM248 233h513v-301h-29v36h-455v-36h-29v301zM323 552c43 -61 103 -115 180 -163c86 51 153 106 200 164zM91 417c112 56 225 149 289 248
l33 -6c-19 -27 -39 -53 -61 -77c127 1 259 -3 382 2l19 -15c-55 -77 -135 -143 -223 -196c123 -70 265 -117 424 -142c-8 -8 -14 -17 -18 -26c-165 27 -309 78 -432 152c-123 -71 -285 -133 -443 -168c-1 7 -7 16 -16 27c151 32 312 91 431 158c-73 47 -131 100 -174 157
c-55 -51 -118 -95 -189 -133c-8 9 -15 16 -22 19z" /><glyph glyph-name="uni5E97" unicode="&#x5E97;" d="M815 249h-496v-237h496v237zM550 486h344v-29h-344v-179h294v-332h-29v37h-496v-40h-29v335h231v352h29v-144zM41 -55c112 169 99 467 98 752h412c-16 35 -40 74 -72 116l25 11c38 -45 65 -88 81 -127h347v-29h-764c3 -280 9 -567 -103 -740c-6 7 -14 13 -24 17z" /><glyph glyph-name="uni5FEB" unicode="&#x5FEB;" d="M40 389c26 60 48 168 55 254l27 -5c-6 -85 -27 -197 -53 -257zM189 831h29v-900h-29v900zM326 485c-16 55 -42 114 -77 177l25 12c38 -68 64 -126 77 -174zM628 633c-1 -93 3 -196 -8 -276h208v276h-200zM591 357c12 81 7 184 8 276h-218v29h218v169h29v-169h229v-305
h110v-29h-323c52 -168 165 -319 319 -375c-9 -7 -17 -16 -23 -27c-156 65 -272 223 -324 402c-32 -202 -145 -319 -298 -402c-3 6 -10 14 -20 24c149 78 258 186 289 378h-268v29h272z" /><glyph glyph-name="uni6027" unicode="&#x6027;" d="M40 390c26 58 48 168 55 252l27 -5c-6 -85 -27 -196 -53 -256zM195 830h29v-898h-29v898zM339 485c-16 55 -42 114 -77 177l25 12c38 -68 64 -126 77 -173zM342 419c64 92 111 228 140 364l29 -5c-11 -53 -27 -110 -48 -170h172v220h30v-220h251v-29h-251v-252h228v-29
h-228v-300h269v-29h-605v29h306v300h-231v29h231v252h-181c-26 -70 -54 -128 -85 -175c-6 4 -19 12 -27 15z" /><glyph glyph-name="uni62D3" unicode="&#x62D3;" d="M380 358c-50 -18 -95 -34 -136 -47v-325c0 -23 -9 -38 -28 -43c-13 -4 -53 -6 -121 -6c-2 9 -6 18 -12 29c35 -1 75 -1 112 -1c13 1 20 7 20 20v317c-65 -22 -119 -39 -161 -52l-12 30l173 53v254h-162v29h162v213h29v-213h136v-29h-136v-244l132 42zM515 389v-371h353
v371h-353zM629 726c-30 -111 -72 -217 -121 -308h389v-485h-29v56h-353v-60h-29v448c-44 -75 -95 -139 -152 -192c-5 7 -14 15 -20 21c136 128 226 311 283 520h-229v29h579v-29h-318z" /><glyph glyph-name="uni6377" unicode="&#x6377;" d="M222 329v-352c0 -23 -9 -37 -28 -42c-15 -4 -52 -6 -113 -5l-12 28c57 -1 92 0 105 0c12 0 18 6 18 19v341l-145 -52l-13 30l158 55v236h-145v30h145v213h30v-213h126v-30h-126v-225l118 42l5 -30zM658 325h194v116h-194v-116zM658 471h194v104h-194v-104zM762 -64
c-197 1 -272 51 -334 190c-29 -82 -70 -148 -123 -199c-6 6 -14 12 -25 19c81 70 132 180 154 329l30 -4c-6 -35 -13 -68 -21 -99c33 -103 83 -164 185 -192v315h-221v30h221v116h-277v30h277v104h-221v30h221v93h-267v29h267v103h30v-103h277v-29h-277v-93h223v-134h80v-30
h-80v-146h-223v-116h235v-30h-235v-176c86 -12 204 -5 302 -7c-7 -10 -12 -20 -13 -30h-185z" /><glyph glyph-name="uni652F" unicode="&#x652F;" d="M251 405c56 -114 140 -208 251 -283c116 70 209 163 269 283h-520zM816 422c-62 -135 -161 -238 -286 -317c117 -73 261 -122 430 -147c-6 -6 -12 -14 -18 -25c-171 27 -317 79 -439 155c-122 -72 -271 -124 -434 -158c-3 7 -9 16 -18 27c160 32 305 81 425 150
c-114 79 -199 178 -256 298h-93v29h358v193h-400v29h400v173h29v-173h401v-29h-401v-193c94 1 193 -3 283 2z" /><glyph glyph-name="uni6536" unicode="&#x6536;" d="M74 153c20 11 34 36 34 64v498h29v-531l202 73v558h29v-886h-29v299c-143 -57 -172 -61 -248 -103c-5 11 -11 20 -17 28zM548 598c35 -149 83 -277 145 -384c57 98 100 226 128 384h-273zM401 376c89 110 145 275 178 454l29 -5c-15 -75 -32 -141 -50 -198h384v-29h-91
c-29 -171 -76 -308 -141 -412c69 -107 149 -184 241 -229c-10 -8 -17 -16 -22 -23c-91 48 -169 124 -236 227c-63 -95 -150 -171 -259 -230c-5 8 -12 16 -21 25c111 54 199 131 264 231c-61 102 -110 224 -145 366c-31 -80 -67 -146 -107 -198c-5 6 -18 17 -24 21z" /><glyph glyph-name="uni65F6" unicode="&#x65F6;" d="M126 711v-263h223v263h-223zM349 145v274h-223v-274h223zM378 116h-252v-81h-29v705h281v-624zM952 585h-141v-589c0 -31 -13 -50 -40 -56c-19 -5 -81 -6 -185 -5c-4 10 -9 22 -14 31c97 -2 157 -2 182 0c19 1 28 10 28 29v590h-351v29h351v211h29v-211h141v-29zM652 217
c-40 76 -116 195 -163 260l24 11c51 -74 125 -182 165 -255z" /><glyph glyph-name="uni677E" unicode="&#x677E;" d="M255 603h136v-29h-136v-44l118 -177l-22 -27c-28 49 -69 121 -96 161v-556h-29v561c-35 -126 -96 -276 -159 -362c-7 11 -15 19 -22 24c77 102 135 242 174 420h-159v29h166v227h29v-227zM398 417c77 92 133 230 163 377l31 -5c-33 -152 -89 -293 -168 -392
c-7 7 -15 13 -26 20zM777 243c62 -100 108 -190 138 -270l-28 -11c-6 16 -16 41 -31 75c-251 -37 -296 -34 -422 -64c-3 13 -7 24 -11 32c19 1 67 108 88 154c48 107 93 228 124 346l31 -11c-49 -165 -118 -346 -191 -477l369 46c-28 58 -59 115 -92 171zM764 804
c43 -150 98 -266 177 -382c-11 -5 -20 -12 -26 -20c-75 109 -135 241 -180 395z" /><glyph glyph-name="uni7406" unicode="&#x7406;" d="M351 146c-97 -33 -198 -68 -295 -101l-10 31c37 11 87 27 148 48v308h-127v29h127v262h-138v29h292v-29h-125v-262h113v-29h-113v-299l123 42zM438 380h203v173h-203v-173zM438 582h203v169h-203v-169zM878 751h-208v-169h208v169zM878 553h-208v-173h208v173zM958 -7
v-29h-651v29h334v179h-250v29h250v150h-232v429h498v-429h-237v-150h255v-29h-255v-179h288z" /><glyph glyph-name="uni7701" unicode="&#x7701;" d="M501 516h-29v314h29v-314zM320 760c-49 -94 -131 -187 -214 -250c-5 5 -19 16 -26 19c93 65 163 144 212 239zM784 392h-506v-103h506v103zM784 17v107h-506v-107h506zM278 153h506v107h-506v-107zM52 393c276 35 533 95 680 252l28 -13c-91 -103 -237 -167 -404 -211
h457v-485h-29v52h-506v-56h-29v464c-62 -13 -116 -22 -176 -31c-6 8 -15 22 -21 28zM703 772c74 -52 178 -140 231 -204l-24 -21c-54 67 -131 136 -230 208z" /><glyph glyph-name="uni7BA1" unicode="&#x7BA1;" d="M311 596c-10 36 -29 78 -47 113h-103c-21 -49 -47 -92 -78 -128c-7 7 -16 12 -25 17c52 57 90 134 115 231l28 -5c-8 -29 -17 -62 -27 -86h298v-29h-180c22 -40 37 -75 45 -105zM257 136v-137h544v137h-544zM257 408v-120h492v120h-492zM257 165h573v-232h-29v37h-544
v-40h-29v507h550v-178h-521v-94zM487 625c18 -27 31 -53 39 -78h373v-155h-29v126h-712v-126h-29v155h365c-11 27 -22 50 -34 71zM929 737v-29h-217c29 -39 50 -74 63 -105l-25 -11c-17 41 -40 79 -69 116h-102c-19 -37 -38 -68 -59 -93c-5 5 -18 13 -25 18
c45 50 76 115 94 194l30 -6c-7 -27 -16 -55 -28 -84h338z" /><glyph glyph-name="uni7EA6" unicode="&#x7EA6;" d="M271 466c-119 -16 -145 -14 -210 -31c-4 9 -7 24 -11 32c13 3 32 25 59 64c50 71 127 200 165 293l30 -13c-58 -119 -128 -240 -199 -334l190 20c23 35 55 79 74 114l30 -15c-80 -119 -182 -258 -277 -352l288 45c0 -8 0 -21 1 -27c-200 -37 -240 -36 -344 -65
c-3 13 -7 24 -11 33c31 9 98 88 133 130c29 35 56 70 82 106zM51 31c121 23 245 51 366 76l2 -27l-361 -80zM718 217c-45 75 -111 151 -200 227l23 17c66 -59 158 -154 201 -225zM424 469c71 90 130 226 165 360l29 -6c-16 -59 -37 -120 -63 -183h354
c-5 -202 -10 -352 -24 -509c-8 -92 -21 -151 -41 -171c-45 -45 -106 -23 -202 -21c-1 12 -5 22 -10 30c45 -4 95 -6 145 -6c17 -1 30 4 39 14c16 18 30 72 39 164c9 93 17 249 24 470h-338c-28 -61 -58 -114 -90 -159c-8 6 -17 12 -27 17z" /><glyph glyph-name="uni7EDF" unicode="&#x7EDF;" d="M678 680c-18 46 -41 93 -69 142l27 9c27 -45 50 -91 69 -138zM857 414c-260 -27 -309 -22 -440 -48c-3 11 -8 22 -15 33c77 25 66 42 131 123c38 47 65 88 86 120h-201v29h521v-29h-283c-55 -83 -113 -161 -173 -233l356 30c-28 41 -57 80 -87 119l25 12
c65 -84 117 -156 154 -215l-26 -17c-11 22 -35 53 -48 76zM60 432c-2 11 -8 27 -12 34c40 21 100 129 130 179c33 58 66 123 91 183l32 -15c-54 -118 -126 -243 -196 -337l175 23c25 37 48 75 71 115l30 -15c-77 -127 -166 -253 -259 -353l239 46c0 -10 2 -19 3 -27
c-93 -21 -192 -39 -282 -62c-7 -3 -13 -5 -17 -8c-1 10 -5 21 -10 33c30 11 89 87 126 133c27 33 53 69 79 106c-117 -19 -138 -16 -200 -35zM363 82c-102 -25 -204 -49 -306 -74l-7 30c99 22 210 48 311 72zM315 -36c173 53 210 176 214 393h29c-4 -227 -47 -356 -223 -415
c-5 9 -11 16 -20 22zM882 -17c13 0 22 7 26 22s7 50 8 106c9 -7 18 -11 28 -13c-1 -59 -7 -97 -13 -115c-16 -47 -97 -29 -153 -29c-41 0 -62 18 -62 54v351h29v-351c0 -17 11 -25 34 -25h103z" /><glyph glyph-name="uni8BA1" unicode="&#x8BA1;" d="M311 630c-39 52 -90 104 -152 157l21 18c66 -54 116 -105 151 -152zM183 -10c23 14 44 41 43 75v416h-172v29h201v-466l144 95c4 -9 8 -17 12 -24c-66 -48 -150 -98 -208 -151c-3 8 -14 19 -20 26zM950 453h-277v-523h-29v523h-268v29h268v347h29v-347h277v-29z" /><glyph glyph-name="uni8F7B" unicode="&#x8F7B;" d="M882 763c-40 -81 -101 -154 -170 -215c100 -45 180 -88 240 -130l-16 -25c-64 45 -146 91 -245 138c-67 -57 -150 -109 -233 -148c-4 5 -11 13 -22 22c160 73 315 189 400 339h-354v29c126 1 257 -3 379 2zM426 197l-136 -29v-233h-29v226l-200 -43l-9 31
c66 13 147 28 209 42v174c-51 -2 -145 8 -171 -13c-3 14 -7 24 -11 31c49 65 76 192 105 289h-128v29h134c9 40 20 87 25 128l31 -8c-8 -38 -17 -86 -25 -120h202v-29h-209c-27 -106 -57 -199 -90 -278h137v166h29v-166h124v-29h-124v-168l134 28zM707 -9h235v-29h-513v29
h249v306h-187v29h407v-29h-191v-306z" /><glyph glyph-name="uni94F6" unicode="&#x94F6;" d="M147 669c-25 -43 -53 -84 -86 -121c-5 8 -12 16 -21 25c63 65 112 150 146 254l29 -7c-15 -45 -32 -85 -52 -122h239v-29h-255zM187 -25c18 8 27 26 27 52v270h-158v29h158v174h-114v29h282v-29h-139v-174h162v-29h-162v-288l169 88c2 -8 6 -19 9 -24
c-126 -72 -152 -78 -219 -129zM490 395h367v165h-367v-165zM490 753v-164h367v164h-367zM724 175c64 38 147 92 196 134l22 -20c-53 -47 -135 -97 -205 -136c58 -89 133 -151 224 -186c-9 -9 -16 -18 -21 -27c-166 71 -274 229 -322 426h-128v-383l214 57c0 -10 1 -19 2 -27
c-84 -28 -180 -46 -256 -82c-5 10 -11 21 -16 31c19 9 27 28 27 55v765h425v-416h-239c19 -73 45 -137 77 -191z" /><glyph glyph-name="uni94FA" unicode="&#x94FA;" d="M892 710c-39 31 -83 62 -134 93l16 18c54 -31 98 -61 133 -88zM157 669c-27 -47 -55 -87 -86 -121l-21 24c64 67 113 152 146 254l29 -6c-15 -45 -32 -86 -52 -122h207v-29h-223zM178 -34c24 14 51 46 50 80v251h-161v29h161v174h-118v29h252v-29h-105v-174h141v-29h-141
v-278l133 75c3 -7 6 -15 9 -22c-115 -74 -140 -84 -199 -132c-4 8 -15 19 -22 26zM704 506v-143h174v143h-174zM878 184v150h-174v-150h174zM675 184v150h-182v-150h182zM493 506v-143h182v143h-182zM704 651v-116h203v-556c-10 -59 -34 -39 -121 -45c-3 9 -7 19 -13 30
c29 -2 61 -1 91 -1c9 1 14 6 14 15v177h-174v-219h-29v219h-182v-228h-29v608h211v116h-248v29h248v150h29v-150h234v-29h-234z" /><glyph glyph-name="uni9884" unicode="&#x9884;" d="M424 765c-41 -68 -112 -149 -175 -200c47 -36 83 -65 107 -86l-16 -17c32 1 69 -3 98 2l20 -9c-27 -61 -66 -154 -97 -201l-26 10c29 46 57 109 82 169h-158v-456c0 -22 -9 -35 -26 -40c-14 -4 -57 -6 -129 -6c-2 8 -6 17 -12 28c65 -1 105 -1 119 0c13 1 19 7 19 18v456
h-180v29h279c-57 51 -156 129 -221 173l21 17l98 -71c55 43 105 99 150 166h-308v29c111 1 227 -3 334 2zM420 -43c156 55 270 131 270 339v216h29c-5 -146 18 -315 -43 -409c-53 -82 -132 -133 -239 -170c-3 8 -9 16 -17 24zM747 129c83 -60 148 -117 195 -170l-21 -23
c-49 56 -114 114 -195 173zM947 780v-29h-207c-14 -39 -34 -99 -48 -131h214v-469h-29v440h-337v-440h-29v469h150c17 40 31 84 44 131h-234v29h476z" /></font>
</defs>
</svg>
